<?xml version="1.0" standalone="no"?>
<!DOCTYPE svg PUBLIC "-//W3C//DTD SVG 1.1//EN" "http://www.w3.org/Graphics/SVG/1.1/DTD/svg11.dtd">
<svg width="745" height="600" version="1.1" xmlns="http://www.w3.org/2000/svg">
	<defs>
		<linearGradient id="topbox" x1="0%" y1="0%" x2="100%" y2="00%">
			<stop offset="0%" stop-color="#ffffff"/>
			<stop offset="100%" stop-color="#fdfd97"/>
		</linearGradient>
	</defs>

	<rect x="1" y="1" width="634" height="204" stroke="black" fill="url(#topbox)"/>
	
	<rect x="1" y="204" width="150" height="210" stroke="black" fill="#ff9900"/>
	<rect x="150" y="204" width="57" height="210" stroke="black" fill="#ffcc00"/>
	<rect x="207" y="204" width="428" height="90" stroke="black" fill="#ffff00"/>
	<rect x="276" y="205" width="358" height="39" stroke="none" fill="#ffff66"/>
	<polyline points="276 204 276 244 635 244" stroke="black" fill="none" stroke-dasharray="5,5"/>
	<rect x="207" y="294" width="428" height="120" stroke="black" fill="#84c1ff"/>
	
	<rect x="1" y="414" width="60" height="136" stroke="black" fill="#eaeaea"/>
	<rect x="60" y="414" width="575" height="136" stroke="black" fill="#dddddd"/>
	
	<rect x="1" y="550" width="634" height="49" stroke="black" fill="#c0c0c0"/>
	
	<rect x="693" y="1" width="51" height="415" stroke="black" fill="#eaeaea"/>
	<rect x="693" y="415" width="51" height="184" stroke="black" fill="#dddddd"/>
	
	<rect x="23" y="100" width="134" height="48" rx="10" ry="10" stroke="black" fill="#99cc00"/>
	<rect x="250" y="100" width="134" height="48" rx="10" ry="10" stroke="black" fill="#99cc00"/>
	<rect x="478" y="100" width="134" height="48" rx="10" ry="10" stroke="black" fill="#99cc00"/>
	
	<line x1="90" y1="148" x2="240" y2="204" stroke="black"/>
	<line x1="317" y1="148" x2="317" y2="204" stroke="black"/>
	<line x1="545" y1="148" x2="545" y2="204" stroke="black"/> 
	
	<line x1="90" y1="148" x2="90" y2="204" stroke="black" stroke-dasharray="2,2"/>
	<line x1="90" y1="148" x2="179" y2="204" stroke="black" stroke-dasharray="2,2"/>
	<line x1="384" y1="125" x2="478" y2="125" stroke="black" stroke-dasharray="2,2"/>
	<polyline points="545 100 545 50 90 50 90 100" stroke="black" fill="none" stroke-dasharray="2,2"/>
	
	<polyline points="84 87 90 100 96 87" stroke="black" fill="black"/>
	<polyline points="397 119 384 125 397 131" stroke="black" fill="black"/>
	
	<circle cx="240" cy="204" r="6" stroke="black" fill="black"/>
	<circle cx="317" cy="204" r="6" stroke="black" fill="black"/>
	<circle cx="545" cy="204" r="6" stroke="black" fill="black"/>
	
	<text x="47" y="131" font-family="arial" font-weight="bold" font-size="21">Bundle 1</text>
	<text x="273" y="131" font-family="arial" font-weight="bold" font-size="21">Bundle 2</text>
	<text x="500" y="131" font-family="arial" font-weight="bold" font-size="21">Bundle n</text>
	
	<text x="373" y="230" font-family="arial" font-weight="bold" font-size="21">System Services</text>
	<text x="292" y="333" font-family="arial" font-weight="bold" font-size="21" font-style="italic">e.g. Java ME CDC, SE, EE</text>
	<text x="168" y="460" font-family="arial" font-weight="bold" font-size="21" font-style="italic">e.g. Windows, Linux VxWorks, QNX</text>
	
	<text x="35" y="322" font-family="arial" font-weight="bold" font-size="26">C/C++</text>
	<text x="314" y="279" font-family="arial" font-weight="bold" font-size="26">OSGi Framework</text>
	<text x="250" y="386" font-family="arial" font-weight="bold" font-size="26">Java Runtime Environment</text>
	<text x="237" y="513" font-family="arial" font-weight="bold" font-size="26">Operating System</text>
	<text x="258" y="581" font-family="arial" font-weight="bold" font-size="26">Hardware</text>
	
	<text x="38" y="528" font-family="arial" font-weight="bold" font-size="26" transform="rotate(-90,38,528)">Drivers</text>
	<text x="728" y="260" font-family="arial" font-weight="bold" font-size="26" transform="rotate(-90,728,260)">Platform</text>
	<text x="728" y="547" font-family="arial" font-weight="bold" font-size="26" transform="rotate(-90,728,547)">Server</text>
	
	<text x="170" y="284" font-family="arial" font-weight="bold" font-size="26">J</text>
	<text x="168" y="317" font-family="arial" font-weight="bold" font-size="26">N</text>
	<text x="175" y="350" font-family="arial" font-weight="bold" font-size="26">I</text>
</svg>